<?xml version="1.0" encoding="utf-8"?>
<!-- Generator: Adobe Illustrator 24.0.1, SVG Export Plug-In . SVG Version: 6.00 Build 0)  -->
<svg version="1.1" id="Layer_1" xmlns="http://www.w3.org/2000/svg" xmlns:xlink="http://www.w3.org/1999/xlink" x="0px" y="0px"
	 viewBox="0 0 250 250" style="enable-background:new 0 0 250 250;" xml:space="preserve">
<style type="text/css">
	.st0{fill:#4F276A;}
	.st1{fill:#4D225F;}
	.st2{fill:#8A6DB0;}
	.st3{fill:#1D1126;}
	.st4{fill:#B089BE;}
	.st5{fill:#C1A9D1;}
	.st6{fill:#4D2260;}
</style>
<polygon class="st0" points="71.77,80.67 59.7,57.09 58.87,57.79 46.27,98.56 61.91,96.52 "/>
<polygon class="st1" points="81.58,99.82 73.66,84.35 63.81,98.42 45.89,101.18 44.57,131.68 79,102.22 "/>
<polygon class="st2" points="148.48,116.27 205.35,115.62 201.78,55.55 158.35,66.91 "/>
<polygon class="st3" points="205.39,116.26 148.5,120.59 152.9,233.17 166.71,203.6 205.43,117.03 "/>
<polygon class="st0" points="147.07,110.36 153.52,68.97 119.56,64.81 83.93,102.22 111.34,128.9 "/>
<polygon class="st2" points="109.25,129.98 80.58,103.67 46.39,137.87 70.66,180.03 108.61,130.32 "/>
<polygon class="st2" points="100.69,58.41 74.79,83.27 83.29,98.23 119.29,64.77 118.1,64.63 "/>
<polygon class="st1" points="98.41,57.6 79.76,33.5 59.85,56.97 72.81,79.78 "/>
<polygon class="st4" points="126.46,41.09 164.43,19.07 118.86,9.19 80.89,33.5 99.87,55.4 "/>
<polygon class="st2" points="119.62,63.11 144.09,65.17 166.48,21.44 165.57,20.59 102.92,56.28 "/>
<polygon class="st5" points="154.18,66.02 171.87,26.43 166.48,21.44 144.09,65.17 "/>
<polygon class="st2" points="155.69,66.15 168.8,62.68 175.32,29.62 171.87,26.43 154.18,66.02 "/>
<polygon class="st2" points="201.64,54 182.16,35.96 181.2,59.4 "/>
<polygon class="st5" points="181.2,59.4 182.16,35.96 175.32,29.62 168.8,62.68 "/>
<path class="st6" d="M145.44,120.82l0.06-0.4l-34.23,11.41L91.24,158.6l56.7,23.25L145.44,120.82z M113.55,133.35l30.75-10.63
	l1.14,47.08L113.55,133.35z"/>
<polygon class="st3" points="81.66,171.41 72.64,183.46 73.3,184.61 131.77,240.81 150.23,237.85 148.17,187.41 "/>
<polygon class="st0" points="147.94,181.85 91.24,158.6 81.66,171.41 148.17,187.41 "/>
<polygon class="st0" points="113.55,133.35 145.44,169.8 144.3,122.72 "/>
</svg>
