<?xml version="1.0" encoding="utf-8"?>
<!-- Generator: Adobe Illustrator 24.0.1, SVG Export Plug-In . SVG Version: 6.00 Build 0)  -->
<svg version="1.1" id="Layer_1" xmlns="http://www.w3.org/2000/svg" xmlns:xlink="http://www.w3.org/1999/xlink" x="0px" y="0px"
	 viewBox="0 0 250 250" style="enable-background:new 0 0 250 250;" xml:space="preserve">
<style type="text/css">
	.st0{fill:#8A6CB0;}
	.st1{fill:#B189BE;}
	.st2{fill:#492566;}
	.st3{fill:#1C1025;}
	.st4{fill:#C1A9D2;}
	.st5{fill:#8A6DB0;}
	.st6{fill:#C1A9D1;}
</style>
<polygon class="st0" points="149.1,126.52 117.83,106.54 93.51,136.51 98.72,178.2 133.9,151.28 "/>
<polygon class="st1" points="137.38,75.27 107.41,27.49 103.93,36.18 103.06,62.24 115.66,103.07 "/>
<polygon class="st2" points="160.83,123.91 150.84,127.39 157.79,150.41 "/>
<polygon class="st2" points="136.07,150.41 147.8,193.41 156.92,153.01 149.54,129.56 "/>
<polygon class="st3" points="135.2,153.01 113.05,169.95 145.63,207.3 166.47,199.05 146.5,195.58 "/>
<polygon class="st2" points="98.72,178.2 95.68,208.61 107.41,235.97 111.75,202.96 146.06,211.21 112.18,172.12 "/>
<polygon class="st3" points="110.01,233.8 144.76,212.95 113.92,206 "/>
<polygon class="st3" points="162.57,86.56 163,125.65 158.66,152.14 149.97,193.84 167.78,196.88 179.5,138.68 "/>
<polygon class="st2" points="164.3,84.82 145.63,40.96 115.22,14.03 108.28,25.76 138.68,73.1 "/>
<polygon class="st4" points="81.35,64.41 71.36,100.03 80.48,110.88 "/>
<polygon class="st2" points="83.52,124.78 80.91,167.78 93.94,204.7 96.55,177.77 91.34,135.64 92.64,133.04 "/>
<polygon class="st4" points="79.61,163.87 80.48,114.36 70.05,102.2 70.92,118.7 67.01,139.12 "/>
<polygon class="st0" points="66.58,142.16 66.58,178.2 80.04,195.14 80.04,212.08 103.93,233.36 79.18,167.35 "/>
<polygon class="st0" points="139.11,76.57 117.4,102.63 130.09,111.48 142.02,77.85 "/>
<polygon class="st0" points="160.83,86.13 149.5,81.14 140,118.4 150.4,125.65 161.26,121.31 "/>
<polygon class="st5" points="142.17,77.85 129.71,111.48 140.06,118.4 149.97,81.14 "/>
<polygon class="st6" points="82.07,82.43 108.05,84.13 106.63,79.78 82,77.35 "/>
<polygon class="st1" points="106.63,79.78 101.33,63.54 102.2,38.79 81.78,62.67 82,77.35 "/>
<polygon class="st1" points="82.16,88.42 109.88,89.74 108.05,84.13 82.07,82.43 "/>
<polygon class="st6" points="82.26,95.48 111.18,93.73 109.88,89.74 82.16,88.42 "/>
<polygon class="st1" points="82.65,121.74 94.81,131.73 115.22,106.11 111.18,93.73 82.26,95.48 "/>
</svg>
