<?xml version="1.0" encoding="utf-8"?>
<!-- Generator: Adobe Illustrator 24.0.1, SVG Export Plug-In . SVG Version: 6.00 Build 0)  -->
<svg version="1.1" xmlns="http://www.w3.org/2000/svg" xmlns:xlink="http://www.w3.org/1999/xlink" x="0px" y="0px"
	 viewBox="0 0 141.73 141.73" style="enable-background:new 0 0 141.73 141.73;" xml:space="preserve">
<style type="text/css">
	.st0{fill:#CCCEF0;stroke:#FFFFFF;stroke-width:0.75;stroke-miterlimit:10;}
	.st1{fill:none;stroke:#FFFFFF;stroke-width:0.75;stroke-miterlimit:10;}
	.st2{fill:#FFFFFF;}
</style>
<g id="Layer_1">
	<polygon id="XMLID_1_" class="st0" points="85.81,66.49 71.95,124.94 58.45,127.51 52.26,127.51 40.75,128.82 37.11,128.5 
		33.93,128.39 29.21,129.6 16.81,75.95 25.26,62.56 34.1,69.57 28.42,43.95 28.44,43.88 32.67,30.15 40.62,36.21 46.37,50.52 
		57.72,40.42 66.34,58.89 76.14,48.68 	"/>
	<line class="st1" x1="29.21" y1="129.6" x2="16.81" y2="75.95"/>
	<line class="st1" x1="25.26" y1="62.56" x2="16.81" y2="75.95"/>
	<line class="st1" x1="31.41" y1="74.19" x2="25.26" y2="62.56"/>
	<line class="st1" x1="33.93" y1="128.39" x2="31.41" y2="74.19"/>
	<line class="st1" x1="37.11" y1="128.5" x2="39.64" y2="73.97"/>
	<line class="st1" x1="31.41" y1="74.19" x2="39.64" y2="73.97"/>
	<polyline class="st1" points="39.64,73.97 37.98,72.66 37.98,72.65 34.1,69.57 25.26,62.56 	"/>
	<line class="st1" x1="16.81" y1="75.95" x2="31.41" y2="74.19"/>
	<line class="st1" x1="33.93" y1="128.39" x2="29.21" y2="129.6"/>
	<line class="st1" x1="37.11" y1="128.5" x2="33.93" y2="128.39"/>
	<line class="st1" x1="34.1" y1="69.57" x2="28.42" y2="43.95"/>
	<line class="st1" x1="35.52" y1="46.14" x2="28.17" y2="43.79"/>
	<line class="st1" x1="40.84" y1="59.16" x2="35.52" y2="46.14"/>
	<polyline class="st1" points="28.42,43.95 28.44,43.88 32.67,30.15 	"/>
	<line class="st1" x1="35.52" y1="46.14" x2="32.67" y2="30.15"/>
	<line class="st1" x1="40.62" y1="36.21" x2="32.67" y2="30.15"/>
	<polyline class="st1" points="41.81,54.57 46.37,50.52 57.72,40.42 	"/>
	<line class="st1" x1="46.37" y1="50.52" x2="40.62" y2="36.21"/>
	<line class="st1" x1="57.72" y1="40.42" x2="46.79" y2="65.51"/>
	<line class="st1" x1="41.81" y1="54.57" x2="46.79" y2="65.51"/>
	<line class="st1" x1="40.75" y1="128.82" x2="46.79" y2="65.51"/>
	<line class="st1" x1="37.98" y1="72.66" x2="41.81" y2="54.57"/>
	<line class="st1" x1="66.34" y1="58.89" x2="57.72" y2="40.42"/>
	<polyline class="st1" points="59.9,65.61 66.34,58.89 76.14,48.68 	"/>
	<line class="st1" x1="85.81" y1="66.49" x2="76.14" y2="48.68"/>
	<line class="st1" x1="73.25" y1="62.53" x2="76.14" y2="48.68"/>
	<line class="st1" x1="85.81" y1="66.49" x2="73.29" y2="62.36"/>
	<line class="st1" x1="59.9" y1="65.61" x2="52.26" y2="127.51"/>
	<line class="st1" x1="73.25" y1="62.53" x2="66.17" y2="75.07"/>
	<line class="st1" x1="59.9" y1="65.61" x2="66.17" y2="75.07"/>
	<line class="st1" x1="85.81" y1="66.49" x2="66.17" y2="75.07"/>
	<line class="st1" x1="58.45" y1="127.51" x2="66.17" y2="75.07"/>
	<line class="st1" x1="85.81" y1="66.49" x2="71.95" y2="124.94"/>
	<line class="st1" x1="71.95" y1="124.94" x2="58.45" y2="127.51"/>
	<line class="st1" x1="58.45" y1="127.51" x2="52.26" y2="127.51"/>
	<line class="st1" x1="52.26" y1="127.51" x2="40.75" y2="128.82"/>
	<line class="st1" x1="40.75" y1="128.82" x2="37.11" y2="128.5"/>
	<g>
		<g>
			<path class="st2" d="M106.36,84.48c1.93,0,1.93-3,0-3C104.43,81.48,104.43,84.48,106.36,84.48L106.36,84.48z"/>
		</g>
	</g>
</g>
<g id="Layer_2">
</g>
</svg>
